<svg xmlns="http://www.w3.org/2000/svg" width="11.876" height="22" viewBox="0 0 11.876 22">
  <g id="Grupo_821" data-name="Grupo 821" transform="translate(-5.062)">
    <path id="Trazado_5509" data-name="Trazado 5509" d="M16.482.008H13.627A5.012,5.012,0,0,0,8.342,4.732a5.082,5.082,0,0,0,.008.687V7.908H5.518a.456.456,0,0,0-.456.459h0v3.609a.457.457,0,0,0,.456.457H8.373v9.109A.459.459,0,0,0,8.83,22h3.746a.459.459,0,0,0,.457-.457V12.411h3.355a.457.457,0,0,0,.456-.457V8.341a.468.468,0,0,0-.456-.457H13.01v-2.1c0-1.006.251-1.53,1.553-1.53h1.919a.457.457,0,0,0,.456-.457V.465A.457.457,0,0,0,16.482.008Z" fill="#f68629"/>
  </g>
</svg>
