<svg xmlns="http://www.w3.org/2000/svg" width="22" height="22" viewBox="0 0 22 22">
  <g id="Grupo_820" data-name="Grupo 820" transform="translate(-26.737)">
    <g id="Grupo_815" data-name="Grupo 815">
      <g id="Grupo_814" data-name="Grupo 814">
        <path id="Trazado_5507" data-name="Trazado 5507" d="M41.86,0H33.608a6.872,6.872,0,0,0-6.871,6.873h0v8.252A6.872,6.872,0,0,0,33.607,22h8.256a6.872,6.872,0,0,0,6.874-6.87V6.874A6.872,6.872,0,0,0,41.867,0Zm4.812,15.123a4.815,4.815,0,0,1-4.812,4.812H33.608A4.815,4.815,0,0,1,28.8,15.123V6.871a4.815,4.815,0,0,1,4.815-4.809h8.252a4.815,4.815,0,0,1,4.812,4.812Z" fill="#f68629"/>
      </g>
    </g>
    <g id="Grupo_817" data-name="Grupo 817">
      <g id="Grupo_816" data-name="Grupo 816">
        <path id="Trazado_5508" data-name="Trazado 5508" d="M37.738,5.5a5.5,5.5,0,1,0,5.5,5.5,5.5,5.5,0,0,0-5.5-5.5Zm0,8.936A3.437,3.437,0,1,1,41.175,11h0A3.441,3.441,0,0,1,37.738,14.436Z" fill="#f68629"/>
      </g>
    </g>
    <g id="Grupo_819" data-name="Grupo 819">
      <g id="Grupo_818" data-name="Grupo 818">
        <circle id="Elipse_49" data-name="Elipse 49" cx="0.735" cy="0.735" r="0.735" transform="translate(42.913 4.353)" fill="#f68629"/>
      </g>
    </g>
  </g>
</svg>
