<svg id="Grupo_1087" data-name="Grupo 1087" xmlns="http://www.w3.org/2000/svg" width="17.286" height="21.127" viewBox="0 0 17.286 21.127">
  <path id="Trazado_5779" data-name="Trazado 5779" d="M16.865,10.022a1.392,1.392,0,0,0-1.02-.42h-.478V6.722a6.472,6.472,0,0,0-1.981-4.741A6.484,6.484,0,0,0,8.64,0,6.472,6.472,0,0,0,3.9,1.981,6.472,6.472,0,0,0,1.918,6.722V9.6H1.44a1.392,1.392,0,0,0-1.02.42A1.392,1.392,0,0,0,0,11.042v8.645a1.392,1.392,0,0,0,.42,1.02,1.392,1.392,0,0,0,1.02.42H15.846a1.436,1.436,0,0,0,1.44-1.44V11.042A1.4,1.4,0,0,0,16.865,10.022ZM12.482,9.6H4.8V6.722A3.7,3.7,0,0,1,5.928,4,3.7,3.7,0,0,1,8.645,2.88,3.7,3.7,0,0,1,11.363,4a3.7,3.7,0,0,1,1.125,2.717V9.6Z" transform="translate(0)" fill="#00af8e"/>
</svg>
