<svg xmlns="http://www.w3.org/2000/svg" width="24.696" height="16.98" viewBox="0 0 24.696 16.98">
  <g id="Grupo_1346" data-name="Grupo 1346" transform="translate(-52.757 -2.51)">
    <g id="Grupo_1345" data-name="Grupo 1345">
      <path id="Trazado_6218" data-name="Trazado 6218" d="M76.4,4.146c-.674-1.192-1.4-1.411-2.877-1.495s-5.2-.141-8.417-.141-6.947.041-8.424.14-2.207.3-2.883,1.5-1.045,3.238-1.045,6.846v.013c0,3.593.355,5.658,1.045,6.84s1.4,1.407,2.881,1.507,5.2.138,8.426.138,6.936-.051,8.419-.136,2.207-.316,2.877-1.507c.7-1.178,1.048-3.243,1.048-6.84v-.013C77.452,7.384,77.1,5.334,76.4,4.146ZM62.018,15.627V6.366L69.736,11Z" fill="#f68629"/>
    </g>
  </g>
</svg>
